<svg width="24" height="24" viewBox="0 0 24 24" fill="none" xmlns="http://www.w3.org/2000/svg">
<path d="M23.5 12C23.5 18.3513 18.3513 23.5 12 23.5C5.64873 23.5 0.5 18.3513 0.5 12C0.5 5.64873 5.64873 0.5 12 0.5C18.3513 0.5 23.5 5.64873 23.5 12Z" fill="#141948" stroke="url(#paint0_linear_1_7949)"/>
<path fill-rule="evenodd" clip-rule="evenodd" d="M5.4319 11.8732C8.93014 10.3491 11.2629 9.34426 12.43 8.85882C15.7625 7.47273 16.455 7.23193 16.9063 7.22396C17.0056 7.22223 17.2276 7.24684 17.3713 7.36351C17.5846 7.53657 17.5858 7.91223 17.5622 8.16085C17.3816 10.0584 16.6002 14.663 16.2026 16.7882C16.0344 17.6875 15.7032 17.989 15.3825 18.0185C14.6857 18.0826 14.1565 17.558 13.4816 17.1156C12.4254 16.4232 11.8287 15.9923 10.8035 15.3167C9.61878 14.5359 10.3868 14.1069 11.062 13.4056C11.2387 13.222 14.3091 10.4293 14.3685 10.1759C14.376 10.1442 14.3829 10.0261 14.3127 9.96376C14.2425 9.90141 14.139 9.92269 14.0643 9.93966C13.9583 9.96371 12.2711 11.0789 9.00261 13.2852C8.52369 13.6141 8.0899 13.7743 7.70126 13.7659C7.27278 13.7567 6.44862 13.5237 5.83592 13.3245C5.08442 13.0802 4.48714 12.9511 4.53917 12.5362C4.56626 12.3201 4.86383 12.0991 5.4319 11.8732V11.8732Z" fill="#F2F9F6"/>
<defs>
<linearGradient id="paint0_linear_1_7949" x1="4.90762e-07" y1="12.4267" x2="24" y2="12.4267" gradientUnits="userSpaceOnUse">
<stop stop-color="#FB451D"/>
<stop offset="1" stop-color="#ED8409"/>
</linearGradient>
</defs>
</svg>
