<svg width="24" height="24" viewBox="0 0 24 24" fill="none" xmlns="http://www.w3.org/2000/svg">
<circle cx="12" cy="12" r="11.5" fill="#141948" stroke="url(#paint0_linear_1_7941)"/>
<path fill-rule="evenodd" clip-rule="evenodd" d="M16.779 9.87154C16.779 9.76429 16.776 9.65854 16.7715 9.55279C17.2522 9.20554 17.67 8.77204 18 8.27853C17.5583 8.47429 17.0842 8.60629 16.5863 8.66629C17.094 8.36104 17.4848 7.87879 17.6685 7.30429C17.193 7.58629 16.6658 7.79104 16.1047 7.90129C15.6562 7.42279 15.0165 7.12354 14.3077 7.12354C12.9487 7.12354 11.8463 8.22604 11.8463 9.58579C11.8463 9.77854 11.868 9.96679 11.91 10.1468C9.864 10.044 8.04975 9.06379 6.8355 7.57429C6.62325 7.93804 6.50175 8.36104 6.50175 8.81254C6.50175 9.66604 6.93675 10.4198 7.5975 10.8615C7.194 10.8488 6.81375 10.7378 6.48225 10.5533V10.5848C6.48225 11.7773 7.3305 12.7725 8.457 12.9983C8.25 13.0545 8.0325 13.0845 7.80825 13.0845C7.64925 13.0845 7.4955 13.0695 7.34475 13.041C7.65825 14.019 8.56725 14.7308 9.645 14.7503C8.802 15.411 7.74075 15.804 6.58725 15.804C6.3885 15.804 6.19275 15.7928 6 15.7703C7.08975 16.4685 8.3835 16.8758 9.774 16.8758C14.3025 16.8758 16.779 13.1243 16.779 9.87154Z" fill="white"/>
<defs>
<linearGradient id="paint0_linear_1_7941" x1="4.90762e-07" y1="12.4267" x2="24" y2="12.4267" gradientUnits="userSpaceOnUse">
<stop stop-color="#FB451D"/>
<stop offset="1" stop-color="#ED8409"/>
</linearGradient>
</defs>
</svg>
