<svg width="24" height="24" viewBox="0 0 24 24" fill="none" xmlns="http://www.w3.org/2000/svg">
<path d="M23.5 12C23.5 18.3513 18.3513 23.5 12 23.5C5.64873 23.5 0.5 18.3513 0.5 12C0.5 5.64873 5.64873 0.5 12 0.5C18.3513 0.5 23.5 5.64873 23.5 12Z" fill="#141948" stroke="url(#paint0_linear_1_7941)"/>
<path d="M17.2406 7.16589C14.2809 6.97201 10.7719 6.91899 7.75773 7.16589C6.82179 7.26797 6.18077 8.37743 6.1109 9.22021C5.96303 10.9904 5.96303 11.9978 6.1109 13.7681C6.18158 14.6108 6.80636 15.7266 7.75855 15.8437C10.8085 16.0384 14.2996 16.0653 17.2415 15.8437C18.1628 15.6879 18.8184 14.6108 18.8891 13.7681C19.037 11.9978 19.037 10.8804 18.8891 9.10942C18.8176 8.26664 18.3009 7.20387 17.2406 7.16589ZM10.8743 13.7396V9.20122L14.9365 11.4708L10.8743 13.7396Z" fill="white"/>
<defs>
<linearGradient id="paint0_linear_1_7941" x1="4.90762e-07" y1="12.4267" x2="24" y2="12.4267" gradientUnits="userSpaceOnUse">
<stop stop-color="#FB451D"/>
<stop offset="1" stop-color="#ED8409"/>
</linearGradient>
</defs>
</svg>
