<svg width="16" height="17" viewBox="0 0 16 17" fill="none" xmlns="http://www.w3.org/2000/svg">
<g clip-path="url(#clip0_604_6034)">
<rect y="0.5" width="16" height="16" rx="8" fill="#C0C0C0"/>
<path d="M3.32526 8.1179C3.32525 8.02855 3.34288 7.94007 3.37715 7.85756C3.41141 7.77504 3.46164 7.70011 3.52494 7.63707C3.58824 7.57403 3.66337 7.52413 3.74601 7.49022C3.82865 7.45631 3.91717 7.43907 4.00649 7.43948L5.1359 7.44319C5.31599 7.44319 5.48869 7.51475 5.61603 7.64213C5.74337 7.76951 5.8149 7.94228 5.8149 8.12242V12.3946C5.94213 12.3569 6.1053 12.3167 6.28405 12.2748C6.40816 12.2456 6.51877 12.1753 6.59795 12.0753C6.67712 11.9753 6.72022 11.8515 6.72025 11.724V6.42463C6.72024 6.33542 6.7378 6.24708 6.77192 6.16465C6.80605 6.08223 6.85606 6.00734 6.91912 5.94425C6.98217 5.88116 7.05703 5.83111 7.13942 5.79697C7.22182 5.76282 7.31012 5.74524 7.3993 5.74523H8.53095C8.71102 5.74526 8.88371 5.81683 9.01104 5.94421C9.13837 6.07159 9.20992 6.24433 9.20995 6.42447V11.3431C9.20995 11.3431 9.49316 11.2284 9.76923 11.1118C9.87175 11.0685 9.95923 10.9958 10.0208 10.9031C10.0823 10.8103 10.1152 10.7014 10.1152 10.5901V4.72624C10.1152 4.63705 10.1328 4.54872 10.1669 4.46631C10.201 4.38391 10.251 4.30903 10.3141 4.24595C10.3771 4.18288 10.452 4.13285 10.5344 4.09871C10.6167 4.06458 10.705 4.04701 10.7942 4.04701H11.9258C12.1059 4.04701 12.2786 4.11857 12.406 4.24595C12.5333 4.37333 12.6049 4.54609 12.6049 4.72624V9.55478C13.586 8.8435 14.5803 7.98796 15.3694 6.95927C15.4839 6.80995 15.5596 6.6346 15.5899 6.44887C15.6202 6.26314 15.604 6.07281 15.5429 5.89484C15.009 4.33834 14.0075 2.98479 12.6754 2.01927C11.3433 1.05375 9.7456 0.523399 8.10074 0.500725C3.66528 0.441121 -0.00039733 4.06308 3.83792e-05 8.50064C-0.0043167 9.90483 0.362045 11.2853 1.06208 12.5024C1.15862 12.6689 1.30065 12.8043 1.47147 12.8929C1.6423 12.9814 1.83484 13.0193 2.02647 13.0022C2.24056 12.9833 2.50711 12.9567 2.82398 12.9195C2.9619 12.9038 3.08923 12.8379 3.18172 12.7343C3.27421 12.6308 3.32539 12.4968 3.32553 12.358V8.1179" fill="#21325B"/>
<path d="M3.30084 14.97C4.49369 15.838 5.90336 16.3591 7.37387 16.4755C8.84438 16.5919 10.3184 16.2991 11.6329 15.6294C12.9474 14.9598 14.0511 13.9395 14.8219 12.6813C15.5926 11.4232 16.0005 9.97625 16.0002 8.50062C16.0002 8.31642 15.9917 8.13429 15.9794 7.95312C13.0578 12.3117 7.66354 14.3494 3.30078 14.9701" fill="#979695"/>
</g>
<rect x="0.5" y="1" width="15" height="15" rx="7.5" stroke="#C0C0C0"/>
<defs>
<clipPath id="clip0_604_6034">
<rect y="0.5" width="16" height="16" rx="8" fill="white"/>
</clipPath>
</defs>
</svg>
